<?xml version="1.0" encoding="UTF-8" standalone="no"?>
<svg xmlns="http://www.w3.org/2000/svg" version="1.1" viewBox="0 0 1920 128">
 <g id="layer2" transform="translate(0,-199.99871)">
  <g id="nugeld-logo-128" transform="translate(512,192.79501)">
   <path id="path3031" d="m 71.205,14.407 c -25.507,0 -47.086,16.816 -54.26,39.966 8.207,1.228 14.504,8.282 14.504,16.831 0,8.549 -6.297,15.604 -14.504,16.828 C 24.119,111.182 45.698,128 71.205,128 102.57,128 128,102.568 128,71.204 128,39.835 102.57,14.407 71.205,14.407 Z" style="fill:#f1b516;fill-rule:evenodd"/>
   <path id="path3033" d="m 53.986,99.146 c -0.833,0 -1.518,-0.269 -2.053,-0.803 -0.535,-0.535 -0.803,-1.22 -0.803,-2.052 l 0,-51.321 c 0,-0.832 0.268,-1.517 0.803,-2.052 0.535,-0.594 1.22,-0.892 2.053,-0.892 l 34.271,0 c 0.773,0 1.429,0.298 1.964,0.892 0.594,0.535 0.892,1.19 0.892,1.964 l 0,11.423 c 0,0.834 -0.298,1.518 -0.892,2.053 -0.535,0.536 -1.191,0.803 -1.964,0.803 l -17.134,0 c -0.833,0 -1.518,0.298 -2.053,0.892 -0.535,0.536 -0.803,1.192 -0.803,1.965 l 0,17.135 c 0,0.834 0.268,1.517 0.803,2.053 0.535,0.536 1.22,0.803 2.053,0.803 0.773,0 1.427,-0.267 1.962,-0.803 0.595,-0.536 0.894,-1.219 0.894,-2.053 l 0,-11.336 c 0,-0.832 0.268,-1.517 0.802,-2.051 0.536,-0.594 1.22,-0.892 2.053,-0.892 l 11.424,0 c 0.773,0 1.429,0.298 1.964,0.892 0.594,0.534 0.892,1.19 0.892,1.962 l 0,28.562 c 0,0.832 -0.298,1.517 -0.892,2.052 -0.535,0.534 -1.191,0.803 -1.964,0.803 l -34.272,0 z" style="fill:#fff"/>
   <path id="path3035" d="m 0,70.953 c 0,-7.839 6.36,-14.2 14.199,-14.2 7.837,0 14.198,6.36 14.198,14.2 0,7.838 -6.361,14.198 -14.198,14.198 C 6.36,85.152 0,78.791 0,70.953 Z" style="fill:#020051;fill-rule:evenodd"/>
   <path id="path3037" d="m 6.028,76.809 c -0.171,0 -0.311,-0.055 -0.42,-0.165 -0.11,-0.109 -0.165,-0.249 -0.165,-0.42 l 0,-10.51 c 0,-0.171 0.055,-0.311 0.165,-0.42 0.109,-0.122 0.249,-0.183 0.42,-0.183 l 7.019,0 c 0.158,0 0.293,0.062 0.402,0.183 0.122,0.11 0.183,0.243 0.183,0.402 l 0,10.529 c 0,0.171 -0.061,0.311 -0.183,0.42 -0.109,0.109 -0.244,0.165 -0.402,0.165 l -2.339,0 c -0.171,0 -0.311,-0.055 -0.421,-0.165 -0.109,-0.109 -0.164,-0.249 -0.164,-0.42 l 0,-7.019 c 0,-0.157 -0.061,-0.293 -0.183,-0.402 -0.109,-0.122 -0.243,-0.183 -0.401,-0.183 -0.171,0 -0.311,0.062 -0.421,0.183 -0.11,0.109 -0.164,0.245 -0.164,0.402 l 0,7.019 c 0,0.171 -0.061,0.311 -0.183,0.42 -0.11,0.109 -0.243,0.165 -0.403,0.165 l -2.34,0 z m 9.358,0 c -0.171,0 -0.311,-0.055 -0.42,-0.165 -0.11,-0.109 -0.165,-0.249 -0.165,-0.42 l 0,-10.529 c 0,-0.159 0.055,-0.293 0.165,-0.402 0.109,-0.122 0.249,-0.183 0.42,-0.183 l 2.339,0 c 0.159,0 0.293,0.062 0.402,0.183 0.122,0.11 0.184,0.243 0.184,0.402 l 0,7.019 c 0,0.171 0.054,0.311 0.164,0.42 0.11,0.111 0.25,0.164 0.42,0.164 0.158,0 0.293,-0.053 0.401,-0.164 0.122,-0.109 0.184,-0.249 0.184,-0.42 l 0,-7.019 c 0,-0.159 0.055,-0.293 0.164,-0.402 0.11,-0.122 0.25,-0.183 0.42,-0.183 l 2.339,0 c 0.158,0 0.293,0.062 0.403,0.183 0.122,0.11 0.183,0.243 0.183,0.402 l 0,10.529 c 0,0.171 -0.061,0.311 -0.183,0.42 -0.11,0.109 -0.245,0.165 -0.403,0.165 l -7.017,0 z" style="fill:#fff"/>
  </g>
  <g id="nusport-logo-128" transform="translate(384,192.71511)">
   <path id="path3120" d="m 71.283,14.568 c -25.47,0 -47.019,16.793 -54.183,39.909 8.195,1.226 14.483,8.27 14.483,16.807 0,8.537 -6.288,15.583 -14.483,16.805 C 24.265,111.207 45.813,128 71.283,128 102.605,128 128,102.605 128,71.284 128,39.96 102.605,14.568 71.283,14.568 Z" style="fill:#b50c16;fill-rule:evenodd"/>
   <path id="path3122" d="m 54.31,98.783 c -0.824,0 -1.5,-0.265 -2.029,-0.794 -0.529,-0.529 -0.794,-1.203 -0.794,-2.028 l 0,-11.2 c 0,-0.822 0.265,-1.499 0.794,-2.028 0.529,-0.587 1.204,-0.883 2.029,-0.883 l 12.901,0 c 0.764,0 1.411,-0.264 1.94,-0.793 0.587,-0.529 0.882,-1.203 0.882,-2.029 0,-0.762 -0.295,-1.411 -0.882,-1.94 -0.529,-0.586 -1.177,-0.881 -1.94,-0.881 l -12.901,0 c -0.824,0 -1.5,-0.265 -2.029,-0.794 -0.529,-0.529 -0.794,-1.203 -0.794,-2.028 l 0,-28.134 c 0,-0.822 0.265,-1.499 0.794,-2.028 0.529,-0.587 1.204,-0.883 2.029,-0.883 l 33.865,0 c 0.764,0 1.411,0.296 1.94,0.883 0.587,0.529 0.882,1.177 0.882,1.94 l 0,11.289 c 0,0.825 -0.295,1.499 -0.882,2.028 -0.529,0.529 -1.177,0.794 -1.94,0.794 l -15.32,0 c -0.824,0 -1.499,0.296 -2.028,0.881 -0.529,0.529 -0.794,1.178 -0.794,1.941 0,0.825 0.265,1.499 0.794,2.028 0.529,0.529 1.204,0.794 2.028,0.794 l 15.319,0 c 0.764,0 1.411,0.296 1.94,0.881 0.587,0.529 0.882,1.178 0.882,1.941 l 0,28.22 c 0,0.825 -0.295,1.499 -0.882,2.028 -0.529,0.529 -1.177,0.794 -1.94,0.794 l -33.864,0 z" style="fill:#fff"/>
   <path id="path3124" d="m 0,70.953 c 0,-7.839 6.36,-14.2 14.199,-14.2 7.837,0 14.198,6.36 14.198,14.2 0,7.838 -6.361,14.198 -14.198,14.198 C 6.36,85.152 0,78.791 0,70.953 Z" style="fill:#020051;fill-rule:evenodd"/>
   <path id="path3126" d="m 6.028,76.809 c -0.171,0 -0.311,-0.055 -0.42,-0.165 -0.11,-0.109 -0.165,-0.249 -0.165,-0.42 l 0,-10.51 c 0,-0.171 0.055,-0.311 0.165,-0.42 0.109,-0.122 0.249,-0.183 0.42,-0.183 l 7.019,0 c 0.158,0 0.293,0.062 0.402,0.183 0.122,0.11 0.183,0.243 0.183,0.402 l 0,10.529 c 0,0.171 -0.061,0.311 -0.183,0.42 -0.109,0.109 -0.244,0.165 -0.402,0.165 l -2.339,0 c -0.171,0 -0.311,-0.055 -0.421,-0.165 -0.109,-0.109 -0.164,-0.249 -0.164,-0.42 l 0,-7.019 c 0,-0.157 -0.061,-0.293 -0.183,-0.402 -0.109,-0.122 -0.243,-0.183 -0.401,-0.183 -0.171,0 -0.311,0.062 -0.421,0.183 -0.11,0.109 -0.164,0.245 -0.164,0.402 l 0,7.019 c 0,0.171 -0.061,0.311 -0.183,0.42 -0.11,0.109 -0.243,0.165 -0.403,0.165 l -2.34,0 z m 9.358,0 c -0.171,0 -0.311,-0.055 -0.42,-0.165 -0.11,-0.109 -0.165,-0.249 -0.165,-0.42 l 0,-10.529 c 0,-0.159 0.055,-0.293 0.165,-0.402 0.109,-0.122 0.249,-0.183 0.42,-0.183 l 2.339,0 c 0.159,0 0.293,0.062 0.402,0.183 0.122,0.11 0.184,0.243 0.184,0.402 l 0,7.019 c 0,0.171 0.054,0.311 0.164,0.42 0.11,0.111 0.25,0.164 0.42,0.164 0.158,0 0.293,-0.053 0.401,-0.164 0.122,-0.109 0.184,-0.249 0.184,-0.42 l 0,-7.019 c 0,-0.159 0.055,-0.293 0.164,-0.402 0.11,-0.122 0.25,-0.183 0.42,-0.183 l 2.339,0 c 0.158,0 0.293,0.062 0.403,0.183 0.122,0.11 0.183,0.243 0.183,0.402 l 0,10.529 c 0,0.171 -0.061,0.311 -0.183,0.42 -0.11,0.109 -0.245,0.165 -0.403,0.165 l -7.017,0 z" style="fill:#fff"/>
  </g>
  <g id="nuzakelijk-logo-128" transform="translate(128,192.79461)">
   <path id="path3186" d="m 71.204,14.409 c -25.506,0 -47.085,16.817 -54.259,39.965 8.206,1.228 14.503,8.282 14.503,16.83 0,8.549 -6.297,15.605 -14.503,16.829 C 24.119,111.183 45.698,128 71.204,128 102.569,128 128,102.57 128,71.204 128,39.836 102.569,14.409 71.204,14.409 Z" style="fill:#006cde;fill-rule:evenodd"/>
   <path id="path3188" d="m 0,70.953 c 0,-7.839 6.36,-14.2 14.199,-14.2 7.837,0 14.198,6.36 14.198,14.2 0,7.838 -6.361,14.198 -14.198,14.198 C 6.36,85.152 0,78.791 0,70.953 Z" style="fill:#020051;fill-rule:evenodd"/>
   <path id="path3190" d="m 6.028,76.809 c -0.171,0 -0.311,-0.055 -0.42,-0.165 -0.11,-0.109 -0.165,-0.249 -0.165,-0.42 l 0,-10.51 c 0,-0.171 0.055,-0.311 0.165,-0.42 0.109,-0.122 0.249,-0.183 0.42,-0.183 l 7.019,0 c 0.158,0 0.293,0.062 0.402,0.183 0.122,0.11 0.183,0.243 0.183,0.402 l 0,10.529 c 0,0.171 -0.061,0.311 -0.183,0.42 -0.109,0.109 -0.244,0.165 -0.402,0.165 l -2.339,0 c -0.171,0 -0.311,-0.055 -0.421,-0.165 -0.109,-0.109 -0.164,-0.249 -0.164,-0.42 l 0,-7.019 c 0,-0.157 -0.061,-0.293 -0.183,-0.402 -0.109,-0.122 -0.243,-0.183 -0.401,-0.183 -0.171,0 -0.311,0.062 -0.421,0.183 -0.11,0.109 -0.164,0.245 -0.164,0.402 l 0,7.019 c 0,0.171 -0.061,0.311 -0.183,0.42 -0.11,0.109 -0.243,0.165 -0.403,0.165 l -2.34,0 z m 9.358,0 c -0.171,0 -0.311,-0.055 -0.42,-0.165 -0.11,-0.109 -0.165,-0.249 -0.165,-0.42 l 0,-10.529 c 0,-0.159 0.055,-0.293 0.165,-0.402 0.109,-0.122 0.249,-0.183 0.42,-0.183 l 2.339,0 c 0.159,0 0.293,0.062 0.402,0.183 0.122,0.11 0.184,0.243 0.184,0.402 l 0,7.019 c 0,0.171 0.054,0.311 0.164,0.42 0.11,0.111 0.25,0.164 0.42,0.164 0.158,0 0.293,-0.053 0.401,-0.164 0.122,-0.109 0.184,-0.249 0.184,-0.42 l 0,-7.019 c 0,-0.159 0.055,-0.293 0.164,-0.402 0.11,-0.122 0.25,-0.183 0.42,-0.183 l 2.339,0 c 0.158,0 0.293,0.062 0.403,0.183 0.122,0.11 0.183,0.243 0.183,0.402 l 0,10.529 c 0,0.171 -0.061,0.311 -0.183,0.42 -0.11,0.109 -0.245,0.165 -0.403,0.165 l -7.017,0 z m 39.333,22.265 c -0.825,0 -1.501,-0.266 -2.031,-0.795 -0.53,-0.53 -0.795,-1.206 -0.795,-2.031 l 0,-14.131 22.609,-22.608 -19.783,0 c -0.825,0 -1.501,-0.265 -2.031,-0.795 -0.53,-0.53 -0.795,-1.206 -0.795,-2.031 l 0,-11.305 c 0,-0.765 0.265,-1.412 0.795,-1.942 0.53,-0.589 1.207,-0.884 2.031,-0.884 l 33.913,0 c 0.764,0 1.412,0.295 1.943,0.884 0.588,0.53 0.883,1.206 0.883,2.031 l 0,14.042 -22.608,22.608 19.783,0 c 0.764,0 1.412,0.295 1.943,0.884 0.588,0.53 0.883,1.178 0.883,1.942 l 0,11.305 c 0,0.825 -0.295,1.501 -0.883,2.031 -0.53,0.53 -1.179,0.795 -1.943,0.795 l -33.914,0 z" style="fill:#fff"/>
  </g>
  <g id="nutech-logo-128" transform="translate(256,192.79461)">
   <path id="path3142" d="m 71.204,14.409 c -25.506,0 -47.086,16.817 -54.259,39.965 8.206,1.228 14.503,8.282 14.503,16.83 0,8.549 -6.297,15.605 -14.503,16.829 C 24.118,111.183 45.698,128 71.204,128 102.569,128 128,102.57 128,71.204 128,39.838 102.569,14.409 71.204,14.409 Z" style="fill:#5100af;fill-rule:evenodd"/>
   <path id="path3144" d="m 65.42,98.845 c -0.828,0 -1.505,-0.266 -2.035,-0.797 -0.531,-0.53 -0.797,-1.207 -0.797,-2.034 l 0,-33.968 c 0,-0.765 -0.296,-1.414 -0.884,-1.944 -0.53,-0.59 -1.179,-0.886 -1.945,-0.886 l -11.324,0 c -0.766,0 -1.414,-0.264 -1.945,-0.795 -0.589,-0.531 -0.885,-1.208 -0.885,-2.036 l 0,-11.232 c 0,-0.826 0.296,-1.506 0.885,-2.037 0.53,-0.588 1.178,-0.883 1.945,-0.883 l 45.29,0 c 0.766,0 1.416,0.295 1.947,0.883 0.586,0.531 0.883,1.181 0.883,1.947 l 0,11.322 c 0,0.827 -0.297,1.505 -0.883,2.036 -0.532,0.531 -1.181,0.795 -1.947,0.795 l -11.321,0 c -0.827,0 -1.504,0.296 -2.035,0.886 -0.532,0.53 -0.796,1.179 -0.796,1.944 l 0,33.968 c 0,0.827 -0.296,1.505 -0.885,2.034 -0.53,0.531 -1.18,0.797 -1.946,0.797 l -11.322,0 z" style="fill:#fff"/>
   <path id="path3146" d="m 0,70.953 c 0,-7.839 6.36,-14.2 14.199,-14.2 7.837,0 14.198,6.36 14.198,14.2 0,7.838 -6.361,14.198 -14.198,14.198 C 6.36,85.152 0,78.791 0,70.953 Z" style="fill:#020051;fill-rule:evenodd"/>
   <path id="path3148" d="m 6.028,76.809 c -0.171,0 -0.311,-0.055 -0.42,-0.165 -0.11,-0.109 -0.165,-0.249 -0.165,-0.42 l 0,-10.51 c 0,-0.171 0.055,-0.311 0.165,-0.42 0.109,-0.122 0.249,-0.183 0.42,-0.183 l 7.019,0 c 0.158,0 0.293,0.062 0.402,0.183 0.122,0.11 0.183,0.243 0.183,0.402 l 0,10.529 c 0,0.171 -0.061,0.311 -0.183,0.42 -0.109,0.109 -0.244,0.165 -0.402,0.165 l -2.339,0 c -0.171,0 -0.311,-0.055 -0.421,-0.165 -0.109,-0.109 -0.164,-0.249 -0.164,-0.42 l 0,-7.019 c 0,-0.157 -0.061,-0.293 -0.183,-0.402 -0.109,-0.122 -0.243,-0.183 -0.401,-0.183 -0.171,0 -0.311,0.062 -0.421,0.183 -0.11,0.109 -0.164,0.245 -0.164,0.402 l 0,7.019 c 0,0.171 -0.061,0.311 -0.183,0.42 -0.11,0.109 -0.243,0.165 -0.403,0.165 l -2.34,0 z m 9.358,0 c -0.171,0 -0.311,-0.055 -0.42,-0.165 -0.11,-0.109 -0.165,-0.249 -0.165,-0.42 l 0,-10.529 c 0,-0.159 0.055,-0.293 0.165,-0.402 0.109,-0.122 0.249,-0.183 0.42,-0.183 l 2.339,0 c 0.159,0 0.293,0.062 0.402,0.183 0.122,0.11 0.184,0.243 0.184,0.402 l 0,7.019 c 0,0.171 0.054,0.311 0.164,0.42 0.11,0.111 0.25,0.164 0.42,0.164 0.158,0 0.293,-0.053 0.401,-0.164 0.122,-0.109 0.184,-0.249 0.184,-0.42 l 0,-7.019 c 0,-0.159 0.055,-0.293 0.164,-0.402 0.11,-0.122 0.25,-0.183 0.42,-0.183 l 2.339,0 c 0.158,0 0.293,0.062 0.403,0.183 0.122,0.11 0.183,0.243 0.183,0.402 l 0,10.529 c 0,0.171 -0.061,0.311 -0.183,0.42 -0.11,0.109 -0.245,0.165 -0.403,0.165 l -7.017,0 z" style="fill:#fff"/>
  </g>
  <g id="nuentertainment-logo-128" transform="translate(640,192.79511)">
   <path id="path3009" d="m 71.204,14.408 c -25.506,0 -47.085,16.817 -54.26,39.965 8.207,1.228 14.504,8.282 14.504,16.831 0,8.549 -6.297,15.604 -14.504,16.828 C 24.119,111.183 45.698,128 71.204,128 102.569,128 128,102.57 128,71.204 128,39.837 102.569,14.408 71.204,14.408 Z" style="fill:#b60f80;fill-rule:evenodd"/>
   <path id="path3011" d="m 57.321,98.823 c -0.825,0 -1.501,-0.266 -2.031,-0.796 -0.529,-0.529 -0.795,-1.205 -0.795,-2.031 l 0,-50.781 c 0,-0.824 0.266,-1.501 0.795,-2.031 0.53,-0.587 1.206,-0.883 2.031,-0.883 l 28.889,0 c 0.764,0 1.413,0.296 1.943,0.883 0.588,0.53 0.883,1.179 0.883,1.943 l 0,11.305 c 0,0.825 -0.295,1.501 -0.883,2.031 -0.53,0.53 -1.179,0.795 -1.943,0.795 l -11.303,0 c -0.826,0 -1.502,0.296 -2.031,0.884 -0.53,0.529 -0.796,1.178 -0.796,1.942 0,0.826 0.266,1.502 0.796,2.031 0.529,0.53 1.205,0.796 2.031,0.796 l 11.303,0 c 0.764,0 1.413,0.295 1.943,0.883 0.588,0.53 0.883,1.179 0.883,1.943 l 0,5.652 c 0,0.825 -0.295,1.501 -0.883,2.031 -0.53,0.53 -1.179,0.795 -1.943,0.795 l -11.303,0 c -0.826,0 -1.502,0.296 -2.031,0.884 -0.53,0.529 -0.796,1.177 -0.796,1.942 0,0.826 0.266,1.502 0.796,2.031 0.529,0.53 1.205,0.796 2.031,0.796 l 11.303,0 c 0.764,0 1.413,0.295 1.943,0.883 0.588,0.53 0.883,1.179 0.883,1.943 l 0,11.303 c 0,0.826 -0.295,1.502 -0.883,2.031 -0.53,0.53 -1.179,0.796 -1.943,0.796 l -28.889,0 z" style="fill:#fff"/>
   <path id="path3013" d="m 0,70.953 c 0,-7.839 6.36,-14.2 14.199,-14.2 7.837,0 14.198,6.36 14.198,14.2 0,7.838 -6.361,14.198 -14.198,14.198 C 6.36,85.152 0,78.791 0,70.953 Z" style="fill:#020051;fill-rule:evenodd"/>
   <path id="path3015" d="m 6.028,76.809 c -0.171,0 -0.311,-0.055 -0.42,-0.165 -0.11,-0.109 -0.165,-0.249 -0.165,-0.42 l 0,-10.51 c 0,-0.171 0.055,-0.311 0.165,-0.42 0.109,-0.122 0.249,-0.183 0.42,-0.183 l 7.019,0 c 0.158,0 0.293,0.062 0.402,0.183 0.122,0.11 0.183,0.243 0.183,0.402 l 0,10.529 c 0,0.171 -0.061,0.311 -0.183,0.42 -0.109,0.109 -0.244,0.165 -0.402,0.165 l -2.339,0 c -0.171,0 -0.311,-0.055 -0.421,-0.165 -0.109,-0.109 -0.164,-0.249 -0.164,-0.42 l 0,-7.019 c 0,-0.157 -0.061,-0.293 -0.183,-0.402 -0.109,-0.122 -0.243,-0.183 -0.401,-0.183 -0.171,0 -0.311,0.062 -0.421,0.183 -0.11,0.109 -0.164,0.245 -0.164,0.402 l 0,7.019 c 0,0.171 -0.061,0.311 -0.183,0.42 -0.11,0.109 -0.243,0.165 -0.403,0.165 l -2.34,0 z m 9.358,0 c -0.171,0 -0.311,-0.055 -0.42,-0.165 -0.11,-0.109 -0.165,-0.249 -0.165,-0.42 l 0,-10.529 c 0,-0.159 0.055,-0.293 0.165,-0.402 0.109,-0.122 0.249,-0.183 0.42,-0.183 l 2.339,0 c 0.159,0 0.293,0.062 0.402,0.183 0.122,0.11 0.184,0.243 0.184,0.402 l 0,7.019 c 0,0.171 0.054,0.311 0.164,0.42 0.11,0.111 0.25,0.164 0.42,0.164 0.158,0 0.293,-0.053 0.401,-0.164 0.122,-0.109 0.184,-0.249 0.184,-0.42 l 0,-7.019 c 0,-0.159 0.055,-0.293 0.164,-0.402 0.11,-0.122 0.25,-0.183 0.42,-0.183 l 2.339,0 c 0.158,0 0.293,0.062 0.403,0.183 0.122,0.11 0.183,0.243 0.183,0.402 l 0,10.529 c 0,0.171 -0.061,0.311 -0.183,0.42 -0.11,0.109 -0.245,0.165 -0.403,0.165 l -7.017,0 z" style="fill:#fff"/>
  </g>
  <g id="nuwerk-logo-128" transform="translate(768,192.79501)">
   <path id="path3164" d="m 71.203,14.409 c -25.505,0 -47.084,16.817 -54.258,39.964 8.206,1.229 14.503,8.283 14.503,16.831 0,8.549 -6.298,15.603 -14.503,16.829 C 24.119,111.183 45.698,128 71.203,128 102.568,128 128,102.57 128,71.204 128,39.836 102.568,14.409 71.203,14.409 Z" style="fill:#008700;fill-rule:evenodd"/>
   <path id="path3166" d="m 45.479,99.177 c -1.604,0 -2.97,-0.536 -4.097,-1.604 -1.068,-1.127 -1.603,-2.493 -1.603,-4.097 l 0,-48.456 c 0,-0.77 0.267,-1.425 0.801,-1.96 0.535,-0.593 1.217,-0.89 2.049,-0.89 l 11.401,0 c 0.771,0 1.426,0.297 1.959,0.89 0.593,0.535 0.891,1.19 0.891,1.96 l 0,34.204 c 0,0.833 0.267,1.515 0.801,2.049 0.535,0.535 1.216,0.801 2.048,0.801 0.771,0 1.425,-0.267 1.961,-0.801 0.593,-0.535 0.89,-1.216 0.89,-2.049 l 0,-28.413 c 0,-0.831 0.267,-1.516 0.802,-2.049 0.535,-0.593 1.217,-0.891 2.048,-0.891 l 11.402,0 c 0.771,0 1.425,0.299 1.96,0.891 0.593,0.533 0.89,1.189 0.89,1.96 l 0,28.502 c 0,0.833 0.268,1.515 0.801,2.049 0.535,0.535 1.217,0.801 2.049,0.801 0.772,0 1.425,-0.267 1.96,-0.801 0.593,-0.535 0.891,-1.216 0.891,-2.049 l 0,-34.204 c 0,-0.77 0.267,-1.425 0.801,-1.96 0.533,-0.593 1.216,-0.89 2.048,-0.89 l 11.402,0 c 0.771,0 1.425,0.297 1.959,0.89 0.593,0.535 0.891,1.19 0.891,1.96 l 0,48.455 c 0,1.604 -0.565,2.97 -1.693,4.097 -1.129,1.068 -2.465,1.604 -4.009,1.604 l -51.303,0 z" style="fill:#fff"/>
   <path id="path3168" d="m 0,70.953 c 0,-7.839 6.36,-14.2 14.199,-14.2 7.837,0 14.198,6.36 14.198,14.2 0,7.838 -6.361,14.198 -14.198,14.198 C 6.36,85.152 0,78.791 0,70.953 Z" style="fill:#020051;fill-rule:evenodd"/>
   <path id="path3170" d="m 6.028,76.809 c -0.171,0 -0.311,-0.055 -0.42,-0.165 -0.11,-0.109 -0.165,-0.249 -0.165,-0.42 l 0,-10.51 c 0,-0.171 0.055,-0.311 0.165,-0.42 0.109,-0.122 0.249,-0.183 0.42,-0.183 l 7.019,0 c 0.158,0 0.293,0.062 0.402,0.183 0.122,0.11 0.183,0.243 0.183,0.402 l 0,10.529 c 0,0.171 -0.061,0.311 -0.183,0.42 -0.109,0.109 -0.244,0.165 -0.402,0.165 l -2.339,0 c -0.171,0 -0.311,-0.055 -0.421,-0.165 -0.109,-0.109 -0.164,-0.249 -0.164,-0.42 l 0,-7.019 c 0,-0.157 -0.061,-0.293 -0.183,-0.402 -0.109,-0.122 -0.243,-0.183 -0.401,-0.183 -0.171,0 -0.311,0.062 -0.421,0.183 -0.11,0.109 -0.164,0.245 -0.164,0.402 l 0,7.019 c 0,0.171 -0.061,0.311 -0.183,0.42 -0.11,0.109 -0.243,0.165 -0.403,0.165 l -2.34,0 z m 9.358,0 c -0.171,0 -0.311,-0.055 -0.42,-0.165 -0.11,-0.109 -0.165,-0.249 -0.165,-0.42 l 0,-10.529 c 0,-0.159 0.055,-0.293 0.165,-0.402 0.109,-0.122 0.249,-0.183 0.42,-0.183 l 2.339,0 c 0.159,0 0.293,0.062 0.402,0.183 0.122,0.11 0.184,0.243 0.184,0.402 l 0,7.019 c 0,0.171 0.054,0.311 0.164,0.42 0.11,0.111 0.25,0.164 0.42,0.164 0.158,0 0.293,-0.053 0.401,-0.164 0.122,-0.109 0.184,-0.249 0.184,-0.42 l 0,-7.019 c 0,-0.159 0.055,-0.293 0.164,-0.402 0.11,-0.122 0.25,-0.183 0.42,-0.183 l 2.339,0 c 0.158,0 0.293,0.062 0.403,0.183 0.122,0.11 0.183,0.243 0.183,0.402 l 0,10.529 c 0,0.171 -0.061,0.311 -0.183,0.42 -0.11,0.109 -0.245,0.165 -0.403,0.165 l -7.017,0 z" style="fill:#fff"/>
  </g>
  <g id="dagvannu-logo-128" transform="translate(896,192.79501)">
   <path id="path2987" d="m 56.796,14.409 c 25.506,0 47.085,16.817 54.259,39.965 -8.206,1.228 -14.503,8.282 -14.503,16.83 0,8.549 6.297,15.605 14.503,16.829 C 103.881,111.183 82.302,128 56.796,128 25.431,128 0,102.57 0,71.204 0,39.836 25.431,14.409 56.796,14.409 Z" style="fill:#020051;fill-rule:evenodd"/>
   <path id="path2989" d="M 30.408,98.64 C 30.083,98.312 25,94.125 25,90.666 l 0,-16.57 c 0,-0.357 0.249,-0.549 0.497,-0.795 C 25.744,73.025 26.186,73 26.57,73 l 5.283,0 c 0.356,0 0.573,0.025 0.821,0.301 0.275,0.246 0.326,0.438 0.326,0.795 l 0,15.848 c 0,0.387 0.21,0.702 0.458,0.949 0.248,0.249 0.607,0.373 0.993,0.373 0.357,0 0.775,-0.125 1.023,-0.373 C 35.748,90.646 36,90.331 36,89.944 l 0,-15.806 c 0,-0.385 0.032,-0.591 0.28,-0.837 C 36.527,73.025 36.751,73 37.136,73 l 5.285,0 c 0.357,0 0.789,0.025 1.037,0.301 0.273,0.246 0.542,0.438 0.542,0.795 l 0,16.484 c 0,4.121 -5.02,7.533 -5.602,8.026 C 37.794,99.117 36.099,99 36.099,99 l -3.236,0 c 0,0 -1.983,0.113 -2.455,-0.36 z M 26.578,70 C 26.195,70 25.748,69.859 25.501,69.613 25.255,69.367 25,69.035 25,68.652 L 25,45.04 c 0,-0.355 0.255,-0.52 0.502,-0.766 C 25.748,44.001 26.195,44 26.578,44 l 14.43,0 c 0.71,0 1.509,0.124 2.028,0.643 C 43.555,45.162 44,45.64 44,46.351 l 0,20.989 c 0,0.738 -0.445,1.386 -0.963,1.904 C 42.518,69.736 41.718,70 41.008,70 l -14.43,0 z M 35.47,61.724 C 35.744,61.478 36,61.165 36,60.781 l 0,-7.871 c 0,-0.354 -0.256,-0.656 -0.53,-0.902 -0.245,-0.273 -0.605,-0.41 -0.962,-0.41 -0.383,0 -0.795,0.137 -1.041,0.41 C 33.222,52.254 33,52.556 33,52.91 l 0,7.871 c 0,0.383 0.191,0.697 0.438,0.943 0.245,0.246 0.653,0.369 1.036,0.369 0.356,0 0.751,-0.123 0.996,-0.369 z M 48.058,70 C 47.675,70 47.488,69.859 47.242,69.613 46.996,69.367 47,69.035 47,68.652 L 47,45.081 C 47,44.699 46.996,44.52 47.242,44.274 47.489,44.001 47.676,44 48.058,44 l 15.743,0 c 0.354,0 0.599,10e-4 0.845,0.273 C 64.919,44.52 65,44.698 65,45.081 l 0,23.571 c 0,0.383 -0.081,0.715 -0.354,0.961 C 64.401,69.859 64.155,70 63.802,70 l -5.248,0 C 58.17,70 57.736,69.859 57.491,69.613 57.244,69.367 57,69.035 57,68.652 l 0,-5.247 c 0,-0.355 -0.015,-0.656 -0.289,-0.902 -0.246,-0.273 -0.486,-0.41 -0.842,-0.41 -0.383,0 -0.475,0.137 -0.722,0.41 C 54.901,62.749 55,63.05 55,63.405 l 0,5.247 c 0,0.383 -0.329,0.715 -0.601,0.961 C 54.153,69.859 53.661,70 53.306,70 l -5.248,0 z M 56.711,56.477 C 56.985,56.231 57,55.917 57,55.534 l 0,-2.624 c 0,-0.354 -0.015,-0.656 -0.289,-0.902 -0.246,-0.273 -0.486,-0.41 -0.842,-0.41 -0.383,0 -0.475,0.137 -0.722,0.41 C 54.901,52.254 55,52.556 55,52.91 l 0,2.624 c 0,0.384 -0.069,0.697 0.177,0.943 0.247,0.246 0.405,0.369 0.787,0.369 0.356,0 0.501,-0.123 0.747,-0.369 z M 69.539,70 C 69.156,70 68.729,69.859 68.482,69.613 68.236,69.367 68,69.035 68,68.652 L 68,45.081 C 68,44.699 68.236,44.52 68.482,44.274 68.729,44.001 69.156,44 69.539,44 l 15.741,0 c 0.355,0 0.86,10e-4 1.107,0.273 C 86.659,44.52 87,44.685 87,45.04 l 0,5.247 C 87,50.67 86.659,51.185 86.387,51.43 86.14,51.676 85.635,52 85.28,52 l -7.87,0 C 77.026,52 76.664,51.936 76.418,52.209 76.173,52.455 76,52.556 76,52.91 l 0,7.871 c 0,0.383 0.173,0.697 0.418,0.943 0.246,0.246 0.584,0.369 0.968,0.369 0.355,0 0.808,-0.123 1.053,-0.369 C 78.713,61.478 79,61.164 79,60.781 l 0,-5.206 C 79,55.192 78.985,54.767 79.23,54.521 79.476,54.248 79.65,54 80.034,54 l 5.246,0 c 0.355,0 0.86,0.248 1.107,0.521 0.272,0.246 0.613,0.658 0.613,1.013 l 0,13.118 c 0,0.383 -0.341,0.715 -0.613,0.961 C 86.14,69.859 85.635,70 85.28,70 L 69.539,70 Z M 48.725,99 C 48.342,99 47.822,98.903 47.576,98.656 47.33,98.41 47,98.121 47,97.738 l 0,-23.571 c 0,-0.383 0.33,-0.604 0.575,-0.85 C 47.822,73.044 48.342,73 48.725,73 l 14.743,0 c 0.354,0 0.766,0.044 1.012,0.317 0.273,0.246 0.52,0.467 0.52,0.85 l 0,23.571 c 0,0.383 -0.247,0.672 -0.521,0.918 C 64.234,98.903 63.822,99 63.468,99 L 58.22,99 C 57.838,99 57.569,98.903 57.323,98.656 57.078,98.41 57,98.121 57,97.738 l 0,-5.248 c 0,-0.355 -0.182,-0.655 -0.456,-0.901 -0.246,-0.274 -0.57,-0.41 -0.925,-0.41 -0.383,0 -0.85,0.137 -1.097,0.41 C 54.276,91.835 54,92.136 54,92.49 l 0,5.248 c 0,0.383 0.004,0.672 -0.268,0.918 C 53.486,98.903 53.327,99 52.972,99 l -4.247,0 z M 56.544,85.563 C 56.818,85.317 57,85.003 57,84.62 l 0,-2.624 c 0,-0.355 -0.182,-0.656 -0.456,-0.902 -0.246,-0.273 -0.57,-0.41 -0.925,-0.41 -0.383,0 -0.85,0.137 -1.097,0.41 C 54.276,81.34 54,81.642 54,81.996 l 0,2.624 c 0,0.383 0.264,0.697 0.511,0.943 0.247,0.247 0.655,0.369 1.037,0.369 0.355,-0.001 0.751,-0.123 0.996,-0.369 z M 69.205,99 C 68.822,99 68.562,98.903 68.315,98.656 68.069,98.41 68,98.121 68,97.738 l 0,-23.571 c 0,-0.383 0.069,-0.604 0.315,-0.85 C 68.562,73.044 68.822,73 69.205,73 l 15.742,0 c 0.355,0 0.526,0.044 0.773,0.317 0.272,0.246 0.28,0.455 0.28,0.809 l 0,23.612 c 0,0.383 -0.008,0.672 -0.28,0.918 C 85.474,98.903 85.302,99 84.947,99 L 79.7,99 C 79.316,99 78.808,98.903 78.563,98.656 78.318,98.41 78,98.121 78,97.738 l 0,-15.742 c 0,-0.355 0.058,-0.656 -0.216,-0.902 -0.245,-0.273 -0.45,-0.41 -0.804,-0.41 -0.383,0 -0.531,0.137 -0.777,0.41 C 75.958,81.34 76,81.642 76,81.996 l 0,15.742 c 0,0.383 -0.254,0.672 -0.528,0.918 C 75.227,98.903 74.808,99 74.453,99 l -5.248,0 z" style="fill:#fff"/>
   <path id="path2991" d="m 99.603,70.953 c 0,-7.839 6.36,-14.2 14.199,-14.2 7.837,0 14.198,6.36 14.198,14.2 0,7.838 -6.361,14.198 -14.198,14.198 -7.839,0.001 -14.199,-6.36 -14.199,-14.198 z" style="fill:#b50c16;fill-rule:evenodd"/>
   <path id="path2993" d="m 105.631,76.809 c -0.171,0 -0.311,-0.055 -0.42,-0.165 -0.11,-0.109 -0.165,-0.249 -0.165,-0.42 l 0,-10.51 c 0,-0.171 0.055,-0.311 0.165,-0.42 0.109,-0.122 0.249,-0.183 0.42,-0.183 l 7.019,0 c 0.158,0 0.293,0.062 0.402,0.183 0.122,0.11 0.183,0.243 0.183,0.402 l 0,10.529 c 0,0.171 -0.061,0.311 -0.183,0.42 -0.109,0.109 -0.244,0.165 -0.402,0.165 l -2.339,0 c -0.171,0 -0.311,-0.055 -0.421,-0.165 -0.109,-0.109 -0.164,-0.249 -0.164,-0.42 l 0,-7.019 c 0,-0.157 -0.061,-0.293 -0.183,-0.402 -0.109,-0.122 -0.243,-0.183 -0.401,-0.183 -0.171,0 -0.311,0.062 -0.421,0.183 -0.11,0.109 -0.164,0.245 -0.164,0.402 l 0,7.019 c 0,0.171 -0.061,0.311 -0.183,0.42 -0.11,0.109 -0.243,0.165 -0.403,0.165 l -2.34,0 z m 9.358,0 c -0.171,0 -0.311,-0.055 -0.42,-0.165 -0.11,-0.109 -0.165,-0.249 -0.165,-0.42 l 0,-10.529 c 0,-0.159 0.055,-0.293 0.165,-0.402 0.109,-0.122 0.249,-0.183 0.42,-0.183 l 2.339,0 c 0.159,0 0.293,0.062 0.402,0.183 0.122,0.11 0.184,0.243 0.184,0.402 l 0,7.019 c 0,0.171 0.054,0.311 0.164,0.42 0.11,0.111 0.25,0.164 0.42,0.164 0.158,0 0.293,-0.053 0.401,-0.164 0.122,-0.109 0.184,-0.249 0.184,-0.42 l 0,-7.019 c 0,-0.159 0.055,-0.293 0.164,-0.402 0.11,-0.122 0.25,-0.183 0.42,-0.183 l 2.339,0 c 0.158,0 0.293,0.062 0.403,0.183 0.122,0.11 0.183,0.243 0.183,0.402 l 0,10.529 c 0,0.171 -0.061,0.311 -0.183,0.42 -0.11,0.109 -0.245,0.165 -0.403,0.165 l -7.017,0 z" style="fill:#fff"/>
  </g>
  <g id="nulive-logo-128" transform="translate(1024,192.79501)">
   <path id="path3075" d="m 71.204,14.409 c -25.506,0 -47.085,16.817 -54.259,39.965 8.206,1.228 14.503,8.282 14.503,16.83 0,8.549 -6.297,15.605 -14.503,16.829 C 24.119,111.183 45.698,128 71.204,128 102.569,128 128,102.57 128,71.204 128,39.836 102.569,14.409 71.204,14.409 Z" style="fill:#020051;fill-rule:evenodd"/>
   <path id="path3077" d="M 39.179,86 C 38.749,86 38.544,85.694 38.267,85.417 37.991,85.142 38,84.621 38,84.191 L 38,57.719 C 38,57.29 37.991,56.835 38.268,56.561 38.544,56.254 38.75,56 39.179,56 l 5.892,0 c 0.399,0 0.965,0.254 1.24,0.561 0.308,0.274 0.689,0.713 0.689,1.112 l 0,17.678 c 0,0.431 -0.09,0.871 0.186,1.147 C 47.463,76.775 47.588,77 48.02,77 l 5.893,0 c 0.398,0 0.544,0.065 0.819,0.371 0.306,0.277 0.268,0.528 0.268,0.927 l 0,5.893 c 0,0.43 0.038,0.951 -0.269,1.226 C 54.457,85.694 54.311,86 53.912,86 l -14.733,0 z m 20.625,0 C 59.373,86 58.857,85.694 58.58,85.417 58.304,85.142 58,84.621 58,84.191 L 58,57.719 C 58,57.29 58.304,56.835 58.58,56.561 58.857,56.254 59.374,56 59.804,56 l 5.893,0 c 0.398,0 0.651,0.254 0.926,0.561 0.308,0.274 0.377,0.713 0.377,1.112 l 0,26.519 c 0,0.43 -0.069,0.951 -0.376,1.226 C 66.349,85.694 66.096,86 65.698,86 l -5.894,0 z M 75.952,85.323 C 75.588,84.96 70,80.013 70,76.158 l 0,-18.485 c 0,-0.399 0.197,-0.838 0.474,-1.112 C 70.751,56.254 71.16,56 71.59,56 l 5.893,0 c 0.398,0 0.758,0.254 1.035,0.561 0.307,0.274 0.482,0.713 0.482,1.112 l 0,17.678 c 0,0.431 0.116,0.783 0.392,1.059 0.275,0.277 0.618,0.415 1.049,0.415 0.398,0 0.779,-0.138 1.055,-0.415 C 81.802,76.134 82,75.782 82,75.351 L 82,57.719 C 82,57.29 82.09,56.835 82.366,56.561 82.643,56.255 82.946,56 83.376,56 l 5.893,0 c 0.398,0 0.866,0.254 1.141,0.561 0.306,0.275 0.59,0.713 0.59,1.112 l 0,18.388 c 0,4.596 -5.584,8.676 -6.233,9.225 C 84.092,85.857 82.22,86 82.22,86 l -3.611,0 c -10e-4,0 -2.131,-0.148 -2.657,-0.677 z M 95.162,86 C 94.732,86 94.535,85.694 94.259,85.417 93.983,85.142 94,84.621 94,84.191 L 94,57.719 C 94,57.29 93.983,56.835 94.259,56.561 94.536,56.254 94.733,56 95.162,56 l 14.731,0 c 0.399,0 0.553,0.254 0.831,0.561 0.306,0.275 0.275,0.713 0.275,1.112 l 0,5.893 c 0,0.43 0.031,0.764 -0.275,1.041 -0.278,0.276 -0.432,0.394 -0.831,0.394 l -5.893,0 c -0.43,0 -0.782,0.173 -1.058,0.48 -0.276,0.276 -0.414,0.625 -0.414,1.023 0,0.428 0.138,0.793 0.414,1.07 0.277,0.276 0.629,0.427 1.058,0.427 l 5.893,0 c 0.399,0 0.553,0.147 0.831,0.453 0.306,0.276 0.275,0.606 0.275,1.005 l 0,2.947 c 0,0.431 0.031,0.843 -0.275,1.119 C 110.446,73.801 110.292,74 109.893,74 L 104,74 c -0.43,0 -0.782,0.093 -1.058,0.4 -0.276,0.277 -0.414,0.583 -0.414,0.982 0,0.431 0.138,0.856 0.414,1.132 0.277,0.277 0.629,0.487 1.058,0.487 l 5.893,0 c 0.399,0 0.553,0.065 0.831,0.371 0.306,0.277 0.275,0.528 0.275,0.927 l 0,5.893 c 0,0.43 0.031,0.951 -0.275,1.226 -0.278,0.277 -0.432,0.583 -0.831,0.583 l -14.731,0 z" style="fill:#fff"/>
   <path id="path3079" d="m 0,70.953 c 0,-7.839 6.36,-14.2 14.199,-14.2 7.837,0 14.198,6.36 14.198,14.2 0,7.838 -6.361,14.198 -14.198,14.198 C 6.36,85.152 0,78.791 0,70.953 Z" style="fill:#b50c16;fill-rule:evenodd"/>
   <path id="path3081" d="m 6.028,76.809 c -0.171,0 -0.311,-0.055 -0.42,-0.165 -0.11,-0.109 -0.165,-0.249 -0.165,-0.42 l 0,-10.51 c 0,-0.171 0.055,-0.311 0.165,-0.42 0.109,-0.122 0.249,-0.183 0.42,-0.183 l 7.019,0 c 0.158,0 0.293,0.062 0.402,0.183 0.122,0.11 0.183,0.243 0.183,0.402 l 0,10.529 c 0,0.171 -0.061,0.311 -0.183,0.42 -0.109,0.109 -0.244,0.165 -0.402,0.165 l -2.339,0 c -0.171,0 -0.311,-0.055 -0.421,-0.165 -0.109,-0.109 -0.164,-0.249 -0.164,-0.42 l 0,-7.019 c 0,-0.157 -0.061,-0.293 -0.183,-0.402 -0.109,-0.122 -0.243,-0.183 -0.401,-0.183 -0.171,0 -0.311,0.062 -0.421,0.183 -0.11,0.109 -0.164,0.245 -0.164,0.402 l 0,7.019 c 0,0.171 -0.061,0.311 -0.183,0.42 -0.11,0.109 -0.243,0.165 -0.403,0.165 l -2.34,0 z m 9.358,0 c -0.171,0 -0.311,-0.055 -0.42,-0.165 -0.11,-0.109 -0.165,-0.249 -0.165,-0.42 l 0,-10.529 c 0,-0.159 0.055,-0.293 0.165,-0.402 0.109,-0.122 0.249,-0.183 0.42,-0.183 l 2.339,0 c 0.159,0 0.293,0.062 0.402,0.183 0.122,0.11 0.184,0.243 0.184,0.402 l 0,7.019 c 0,0.171 0.054,0.311 0.164,0.42 0.11,0.111 0.25,0.164 0.42,0.164 0.158,0 0.293,-0.053 0.401,-0.164 0.122,-0.109 0.184,-0.249 0.184,-0.42 l 0,-7.019 c 0,-0.159 0.055,-0.293 0.164,-0.402 0.11,-0.122 0.25,-0.183 0.42,-0.183 l 2.339,0 c 0.158,0 0.293,0.062 0.403,0.183 0.122,0.11 0.183,0.243 0.183,0.402 l 0,10.529 c 0,0.171 -0.061,0.311 -0.183,0.42 -0.11,0.109 -0.245,0.165 -0.403,0.165 l -7.017,0 z" style="fill:#fff"/>
  </g>
  <g id="nulab-logo-128" transform="translate(1152,192.79501)">
   <path id="path3053" d="m 71.204,14.409 c -25.506,0 -47.085,16.817 -54.259,39.965 8.206,1.228 14.503,8.282 14.503,16.83 0,8.549 -6.297,15.605 -14.503,16.829 C 24.119,111.183 45.698,128 71.204,128 102.569,128 128,102.57 128,71.204 128,39.836 102.569,14.409 71.204,14.409 Z" style="fill:#020051;fill-rule:evenodd"/>
   <path id="path3055" d="M 41.342,86 C 40.91,86 40.624,85.962 40.347,85.688 40.07,85.414 40,85.163 40,84.736 L 40,58.444 C 40,58.018 40.07,57.7 40.347,57.425 40.624,57.121 40.91,57 41.342,57 l 5.921,0 c 0.401,0 0.868,0.121 1.146,0.425 C 48.717,57.7 49,58.003 49,58.399 l 0,17.56 c 0,0.426 0.01,0.566 0.288,0.84 0.277,0.274 0.504,0.201 0.935,0.201 l 5.921,0 c 0.401,0 0.929,0.364 1.207,0.667 0.308,0.276 0.649,0.821 0.649,1.215 l 0,5.853 c 0,0.427 -0.341,0.678 -0.649,0.952 C 57.073,85.962 56.545,86 56.144,86 l -14.802,0 z m 20.726,0 C 61.634,86 61.485,85.962 61.21,85.688 60.931,85.414 61,85.163 61,84.736 L 61,58.444 C 61,58.018 60.931,57.7 61.21,57.425 61.486,57.121 61.634,57 62.068,57 l 18.763,0 c 0.398,0 0.584,0.121 0.862,0.425 C 82,57.7 82,58.018 82,58.444 l 0,26.292 c 0,0.427 0,0.678 -0.307,0.952 C 81.416,85.962 81.23,86 80.831,86 l -5.924,0 C 74.475,86 73.91,85.962 73.63,85.688 73.353,85.414 73,85.163 73,84.736 l 0,-5.853 c 0,-0.395 0.059,-0.73 -0.248,-1.005 -0.277,-0.304 -0.51,-0.457 -0.912,-0.457 -0.432,0 -0.966,0.154 -1.245,0.457 C 70.318,78.153 70,78.488 70,78.882 l 0,5.853 c 0,0.427 0.079,0.678 -0.228,0.952 C 69.494,85.962 69.387,86 68.987,86 l -6.919,0 z M 72.752,71.155 C 73.059,70.882 73,70.53 73,70.104 l 0,-2.927 c 0,-0.395 0.059,-0.731 -0.248,-1.006 -0.277,-0.303 -0.51,-0.457 -0.912,-0.457 -0.432,0 -0.966,0.154 -1.245,0.457 C 70.318,66.446 70,66.782 70,67.177 l 0,2.927 c 0,0.426 0.371,0.778 0.649,1.051 0.279,0.275 0.643,0.412 1.075,0.412 0.402,0 0.75,-0.137 1.028,-0.412 z M 86.751,86 C 86.319,86 85.828,85.962 85.55,85.688 85.273,85.414 85,85.163 85,84.736 L 85,58.444 C 85,58.018 85.273,57.7 85.551,57.425 85.828,57.121 86.32,57 86.751,57 l 16.281,0 c 0.802,0 1.5,0.258 2.084,0.837 0.587,0.579 0.883,1.233 0.883,2.025 l 0,8.78 c 0,0.822 -0.297,1.524 -0.883,2.103 -0.585,0.549 -1.28,0.822 -2.083,0.822 0.802,0 1.499,0.29 2.084,0.869 0.587,0.58 0.883,1.265 0.883,2.059 l 0,8.778 c 0,0.824 -0.297,1.425 -0.883,2.003 -0.585,0.549 -1.282,0.725 -2.084,0.725 l -16.282,0 z M 96.592,68.23 C 96.902,67.955 97,67.606 97,67.177 l 0,-2.925 c 0,-0.397 -0.098,-0.733 -0.408,-1.006 -0.276,-0.305 -0.588,-0.458 -0.988,-0.458 -0.434,0 -0.849,0.154 -1.125,0.458 C 94.2,63.519 94,63.855 94,64.252 l 0,2.925 c 0,0.429 0.214,0.778 0.493,1.053 0.276,0.273 0.639,0.412 1.073,0.412 0.4,0 0.751,-0.139 1.026,-0.412 z m 0,11.705 C 96.902,79.662 97,79.311 97,78.882 l 0,-2.924 c 0,-0.397 -0.098,-0.734 -0.408,-1.007 -0.276,-0.304 -0.588,-0.457 -0.988,-0.457 -0.434,0 -0.849,0.153 -1.125,0.457 C 94.2,75.225 94,75.561 94,75.959 l 0,2.924 c 0,0.428 0.214,0.779 0.493,1.053 0.276,0.275 0.639,0.412 1.073,0.412 0.4,0 0.751,-0.138 1.026,-0.413 z" style="fill:#fff"/>
   <path id="path3057" d="m 0,70.953 c 0,-7.839 6.36,-14.2 14.199,-14.2 7.837,0 14.198,6.36 14.198,14.2 0,7.838 -6.361,14.198 -14.198,14.198 C 6.36,85.152 0,78.791 0,70.953 Z" style="fill:#b50c16;fill-rule:evenodd"/>
   <path id="path3059" d="m 6.028,76.809 c -0.171,0 -0.311,-0.055 -0.42,-0.165 -0.11,-0.109 -0.165,-0.249 -0.165,-0.42 l 0,-10.51 c 0,-0.171 0.055,-0.311 0.165,-0.42 0.109,-0.122 0.249,-0.183 0.42,-0.183 l 7.019,0 c 0.158,0 0.293,0.062 0.402,0.183 0.122,0.11 0.183,0.243 0.183,0.402 l 0,10.529 c 0,0.171 -0.061,0.311 -0.183,0.42 -0.109,0.109 -0.244,0.165 -0.402,0.165 l -2.339,0 c -0.171,0 -0.311,-0.055 -0.421,-0.165 -0.109,-0.109 -0.164,-0.249 -0.164,-0.42 l 0,-7.019 c 0,-0.157 -0.061,-0.293 -0.183,-0.402 -0.109,-0.122 -0.243,-0.183 -0.401,-0.183 -0.171,0 -0.311,0.062 -0.421,0.183 -0.11,0.109 -0.164,0.245 -0.164,0.402 l 0,7.019 c 0,0.171 -0.061,0.311 -0.183,0.42 -0.11,0.109 -0.243,0.165 -0.403,0.165 l -2.34,0 z m 9.358,0 c -0.171,0 -0.311,-0.055 -0.42,-0.165 -0.11,-0.109 -0.165,-0.249 -0.165,-0.42 l 0,-10.529 c 0,-0.159 0.055,-0.293 0.165,-0.402 0.109,-0.122 0.249,-0.183 0.42,-0.183 l 2.339,0 c 0.159,0 0.293,0.062 0.402,0.183 0.122,0.11 0.184,0.243 0.184,0.402 l 0,7.019 c 0,0.171 0.054,0.311 0.164,0.42 0.11,0.111 0.25,0.164 0.42,0.164 0.158,0 0.293,-0.053 0.401,-0.164 0.122,-0.109 0.184,-0.249 0.184,-0.42 l 0,-7.019 c 0,-0.159 0.055,-0.293 0.164,-0.402 0.11,-0.122 0.25,-0.183 0.42,-0.183 l 2.339,0 c 0.158,0 0.293,0.062 0.403,0.183 0.122,0.11 0.183,0.243 0.183,0.402 l 0,10.529 c 0,0.171 -0.061,0.311 -0.183,0.42 -0.11,0.109 -0.245,0.165 -0.403,0.165 l -7.017,0 z" style="fill:#fff"/>
  </g>
  <g id="nu-logo-128" transform="translate(0,192.7944)">
   <path id="path2987-5" d="m 56.796,14.409 c 25.506,0 47.085,16.817 54.259,39.965 -8.206,1.228 -14.503,8.282 -14.503,16.83 0,8.549 6.297,15.605 14.503,16.829 C 103.881,111.183 82.302,128 56.796,128 25.431,128 0,102.57 0,71.204 0,39.836 25.431,14.409 56.796,14.409 Z" style="fill:#020051;fill-rule:evenodd"/>
   <path id="path2991-2" d="m 99.603,70.953 c 0,-7.839 6.36,-14.2 14.199,-14.2 7.837,0 14.198,6.36 14.198,14.2 0,7.838 -6.361,14.198 -14.198,14.198 -7.839,0.001 -14.199,-6.36 -14.199,-14.198 z" style="fill:#b50c16;fill-rule:evenodd"/>
   <g id="g3298">
    <path d="m 17.381522,48.378721 c 0,-0.863354 0.873012,-1.800104 1.750852,-1.800104 l 33.421672,0 c 0.922264,0 1.524874,0.906812 1.524874,1.800104 l 0,45.862092 c 0,0.87011 -0.495415,1.58957 -1.524874,1.58957 l -13.55486,0 c -0.903914,0 -1.337523,-0.63158 -1.337523,-1.58957 l 0,-34.12665 c 0,-2.380502 -3.862884,-2.323524 -3.862884,0.01062 l 0,34.11603 c 0,0.92612 -0.744571,1.58957 -1.575091,1.58957 l -13.091314,0 c -0.933852,0 -1.750852,-0.62095 -1.750852,-1.58957 l 0,-45.862092 z m 40.560282,45.953832 c 0,0.86142 0.144858,1.49783 1.020767,1.49783 l 33.422637,0 c 0.92323,0 1.28827,-0.6055 1.28827,-1.49783 l 0,-45.862088 c 0,-0.871081 -0.25881,-1.891848 -1.2873,-1.891848 l -13.554864,0 c -0.90488,0 -1.575091,0.932887 -1.575091,1.891848 l 0,34.125678 c 0,2.38244 -3.862884,2.32353 -3.862884,-0.0106 l 0,-34.115078 c 0,-0.926127 -0.507969,-1.891848 -1.338489,-1.891848 l -13.092279,0 c -0.932887,0 -1.020767,0.923229 -1.020767,1.891848 l 0,45.862088 z" id="path3105-1" style="fill:#fff;fill-rule:evenodd"/>
   </g>
   <g transform="translate(53.235094,36.74584)" id="flowRoot3358" style="fill:#fff">
    <path d="m 62.132812,39.932723 -2.195312,0 0,-4.234375 c -6e-6,-0.895828 -0.04688,-1.473953 -0.140625,-1.734375 -0.09376,-0.265619 -0.247402,-0.471348 -0.460938,-0.617188 -0.208339,-0.145826 -0.460942,-0.218743 -0.757812,-0.21875 -0.380213,7e-6 -0.721359,0.104174 -1.023438,0.3125 -0.302087,0.20834 -0.51042,0.484381 -0.625,0.828125 -0.109378,0.343756 -0.164065,0.979172 -0.164062,1.90625 l 0,3.757813 -2.195313,0 0,-8.296875 2.039063,0 0,1.21875 c 0.723954,-0.937492 1.635412,-1.406242 2.734375,-1.40625 0.484369,8e-6 0.927076,0.08855 1.328125,0.265625 0.401034,0.171883 0.703117,0.393237 0.90625,0.664062 0.208325,0.270841 0.351554,0.578132 0.429687,0.921875 0.08333,0.343757 0.124992,0.835944 0.125,1.476563 l 0,5.15625" id="path3121"/>
    <path d="m 64.367187,39.932723 0,-11.453125 2.195313,0 0,11.453125 -2.195313,0" id="path3123"/>
   </g>
  </g>
  <switch transform="matrix(0.16666667,0,0,0.16666667,1258.6667,192.7954)" id="nufoto-logo-128">
   <g id="g7">
    <path d="m 555.218,86.454 c -153.03,0 -282.504,100.902 -325.548,239.784 49.236,7.374 87.018,49.697 87.018,100.985 0,51.294 -37.788,93.618 -87.018,100.975 C 272.714,667.098 402.188,768 555.218,768 743.408,768 896,615.42 896,427.224 896,239.016 743.408,86.454 555.218,86.454 Z" id="path9-4" style="fill:#020051"/>
    <path d="m 128,425.718 c 0,-47.034 38.16,-85.2 85.194,-85.2 47.022,0 85.188,38.16 85.188,85.2 0,47.028 -38.166,85.188 -85.188,85.188 C 166.16,510.912 128,472.746 128,425.718 Z" id="path11-7" style="fill:#af131b"/>
    <path d="m 164.168,460.854 c -1.026,0 -1.866,-0.329 -2.52,-0.989 -0.66,-0.654 -0.99,-1.494 -0.99,-2.521 l 0,-63.06 c 0,-1.026 0.33,-1.866 0.99,-2.521 0.654,-0.731 1.494,-1.098 2.52,-1.098 l 42.114,0 c 0.948,0 1.758,0.372 2.412,1.098 0.732,0.66 1.098,1.458 1.098,2.412 l 0,63.174 c 0,1.026 -0.366,1.866 -1.098,2.521 -0.654,0.654 -1.464,0.99 -2.412,0.99 l -14.034,0 c -1.026,0 -1.866,-0.33 -2.526,-0.99 -0.654,-0.654 -0.984,-1.494 -0.984,-2.521 l 0,-42.113 c 0,-0.942 -0.366,-1.758 -1.098,-2.412 -0.654,-0.732 -1.458,-1.099 -2.406,-1.099 -1.026,0 -1.866,0.372 -2.526,1.099 -0.66,0.654 -0.984,1.47 -0.984,2.412 l 0,42.113 c 0,1.026 -0.366,1.866 -1.098,2.521 -0.66,0.654 -1.458,0.99 -2.418,0.99 l -14.04,0 0,-0.006 z m 56.148,0 c -1.026,0 -1.866,-0.329 -2.52,-0.989 -0.66,-0.654 -0.99,-1.494 -0.99,-2.521 l 0,-63.174 c 0,-0.954 0.33,-1.758 0.99,-2.412 0.654,-0.731 1.494,-1.098 2.52,-1.098 l 14.034,0 c 0.954,0 1.758,0.372 2.412,1.098 0.732,0.66 1.104,1.458 1.104,2.412 l 0,42.114 c 0,1.025 0.324,1.866 0.984,2.52 0.66,0.666 1.5,0.984 2.52,0.984 0.948,0 1.758,-0.318 2.406,-0.984 0.732,-0.653 1.104,-1.494 1.104,-2.52 l 0,-42.114 c 0,-0.954 0.33,-1.758 0.984,-2.412 0.66,-0.731 1.5,-1.098 2.52,-1.098 l 14.034,0 c 0.948,0 1.758,0.372 2.418,1.098 0.732,0.66 1.098,1.458 1.098,2.412 l 0,63.174 c 0,1.026 -0.366,1.866 -1.098,2.521 -0.66,0.653 -1.47,0.989 -2.418,0.989 l -42.102,0 z" id="path13-7" style="fill:#fff"/>
    <path d="m 437.843,299.911 291.418,0 c 22.639,0 41.002,18.355 41.002,40.994 l 0,166.948 c 0,22.64 -18.363,40.995 -41.002,40.995 l -291.418,0 c -22.64,0 -41.002,-18.355 -41.002,-40.995 l 0,-166.948 c -0.001,-22.639 18.362,-40.994 41.002,-40.994 z" id="path15-5" style="fill:#fff;fill-rule:evenodd"/>
    <path d="m 434.758,430.694 c 0,-51.577 41.77,-93.344 93.349,-93.344 l 0,0 c 51.563,0 93.349,41.768 93.363,93.344 l 0,0 c -0.015,51.578 -41.8,93.349 -93.363,93.364 l 0,0 c -51.579,-0.015 -93.349,-41.786 -93.349,-93.364 l 0,0 z m 15.559,0 c 0.076,42.986 34.804,77.729 77.79,77.79 l 0,0 c 42.979,-0.061 77.713,-34.804 77.79,-77.79 l 0,0 c -0.077,-42.977 -34.811,-77.71 -77.79,-77.786 l 0,0 c -42.986,0.076 -77.714,34.81 -77.79,77.786 l 0,0 0,0 z" id="path17" style="fill:#020051"/>
    <path d="m 528.213,284.352 c 0,-12.916 -10.424,-23.339 -23.339,-23.339 l -46.678,0 c -12.916,0 -23.338,10.424 -23.338,23.339 l 93.355,0 z" id="path19" style="fill:#fff;fill-rule:evenodd"/>
    <path d="m 666.712,390.141 c -16.858,-0.029 -30.647,-13.423 -30.647,-30.182 l 0,0 c 0.015,-16.759 13.743,-30.236 30.647,-30.25 l 0,0 45.674,0 c 16.882,0.015 30.625,13.492 30.64,30.25 l 0,0 c -0.015,16.759 -13.804,30.153 -30.64,30.182 l 0,0 -45.674,0 0,0 z m -15.103,-30.183 c 0.015,7.969 6.577,14.617 15.103,14.631 l 0,0 45.674,0 c 8.503,-0.015 15.073,-6.662 15.09,-14.631 l 0,0 c -0.017,-7.977 -6.633,-14.7 -15.09,-14.7 l 0,0 -45.674,0 c -8.479,0 -15.088,6.723 -15.103,14.7 l 0,0 0,0 z" id="path21" style="fill:#020051"/>
    <path d="m 469.766,430.702 c 0,-32.204 26.135,-58.346 58.348,-58.346 32.198,0 58.348,26.142 58.348,58.346 0,32.213 -26.149,58.348 -58.348,58.348 -32.213,0 -58.348,-26.135 -58.348,-58.348 z" id="path23" style="fill:#020051;fill-rule:evenodd"/>
   </g>
  </switch>
  <switch transform="matrix(0.16666667,0,0,0.16666667,1386.6667,192.7954)" id="nujij-logo-128">
   <g id="g3011">
    <path d="m 555.218,86.454 c -153.03,0 -282.504,100.902 -325.548,239.784 49.236,7.374 87.018,49.697 87.018,100.985 0,51.294 -37.788,93.618 -87.018,100.975 C 272.714,667.098 402.188,768 555.218,768 743.408,768 896,615.42 896,427.224 896,239.016 743.408,86.454 555.218,86.454 Z" id="path3013-4" style="fill:#d40000"/>
    <path d="m 128,425.718 c 0,-47.034 38.16,-85.2 85.194,-85.2 47.022,0 85.188,38.16 85.188,85.2 0,47.028 -38.166,85.188 -85.188,85.188 C 166.16,510.912 128,472.746 128,425.718 Z" id="path3015-4" style="fill:#020051"/>
    <path d="m 164.168,460.854 c -1.026,0 -1.866,-0.329 -2.52,-0.989 -0.66,-0.654 -0.99,-1.494 -0.99,-2.521 l 0,-63.06 c 0,-1.026 0.33,-1.866 0.99,-2.521 0.654,-0.731 1.494,-1.098 2.52,-1.098 l 42.114,0 c 0.948,0 1.758,0.372 2.412,1.098 0.732,0.66 1.098,1.458 1.098,2.412 l 0,63.174 c 0,1.026 -0.366,1.866 -1.098,2.521 -0.654,0.654 -1.464,0.99 -2.412,0.99 l -14.034,0 c -1.026,0 -1.866,-0.33 -2.526,-0.99 -0.654,-0.654 -0.984,-1.494 -0.984,-2.521 l 0,-42.113 c 0,-0.942 -0.366,-1.758 -1.098,-2.412 -0.654,-0.732 -1.458,-1.099 -2.406,-1.099 -1.026,0 -1.866,0.372 -2.526,1.099 -0.66,0.654 -0.984,1.47 -0.984,2.412 l 0,42.113 c 0,1.026 -0.366,1.866 -1.098,2.521 -0.66,0.654 -1.458,0.99 -2.418,0.99 l -14.04,0 0,-0.006 z m 56.148,0 c -1.026,0 -1.866,-0.329 -2.52,-0.989 -0.66,-0.654 -0.99,-1.494 -0.99,-2.521 l 0,-63.174 c 0,-0.954 0.33,-1.758 0.99,-2.412 0.654,-0.731 1.494,-1.098 2.52,-1.098 l 14.034,0 c 0.954,0 1.758,0.372 2.412,1.098 0.732,0.66 1.104,1.458 1.104,2.412 l 0,42.114 c 0,1.025 0.324,1.866 0.984,2.52 0.66,0.666 1.5,0.984 2.52,0.984 0.948,0 1.758,-0.318 2.406,-0.984 0.732,-0.653 1.104,-1.494 1.104,-2.52 l 0,-42.114 c 0,-0.954 0.33,-1.758 0.984,-2.412 0.66,-0.731 1.5,-1.098 2.52,-1.098 l 14.034,0 c 0.948,0 1.758,0.372 2.418,1.098 0.732,0.66 1.098,1.458 1.098,2.412 l 0,63.174 c 0,1.026 -0.366,1.866 -1.098,2.521 -0.66,0.653 -1.47,0.989 -2.418,0.989 l -42.102,0 z" id="path3017" style="fill:#fff"/>
    <rect x="440.73401" y="337.35599" width="60.133" height="274.88199" id="rect3019" style="fill:#fff"/>
    <rect x="440.73401" y="238.729" width="60.133" height="61.509" id="rect3021" style="fill:#fff"/>
    <rect x="624.80298" y="336.35599" width="60.133" height="274.88199" id="rect3023" style="fill:#fff"/>
    <rect x="532.87402" y="336.35599" width="60.133" height="172.491" id="rect3025" style="fill:#fff"/>
    <rect x="532.66199" y="238.729" width="60.133" height="61.509" id="rect3027" style="fill:#fff"/>
    <rect x="624.69702" y="238.729" width="60.133" height="61.509" id="rect3029" style="fill:#fff"/>
   </g>
  </switch>
  <switch transform="matrix(0.16638397,0,0,0.16638397,1507.7155,192.81984)" id="logo-zie-128">
   <g id="g3058">
    <circle cx="554.64801" cy="427.806" r="341.35199" id="circle3060" style="fill:#4971a8"/>
    <polygon points="591.65,328.918 762.929,427.805 591.65,526.693 420.37,625.585 420.37,427.805 420.37,230.027 " id="polygon3062" style="fill:#fff"/>
   </g>
  </switch>
  <g id="logo-oranje" transform="matrix(0.25,0,0,0.25,1664,206.79571)">
   <path d="m 285.132,2.272 c -101.88,0 -188.076,67.172 -216.732,159.636 32.78,4.904 57.932,33.08 57.932,67.228 0,34.148 -25.152,62.332 -57.932,67.22 C 97.06,388.828 183.252,456 285.132,456 410.42,456 512,354.42 512,229.136 512,103.84 410.42,2.272 285.132,2.272 l 0,0 z" id="path3120-3" style="fill:#ed893c"/>
   <path d="m 231.64554,335.983 c -2.14025,-2.11507 -3.21182,-4.81686 -3.21182,-8.1111 l 0,-202.83196 c 0,-3.29138 1.07157,-5.99604 3.21182,-8.11397 2.14024,-2.34976 4.8771,-3.52607 8.21345,-3.52607 l 45.68663,0 c 3.09018,0 5.70829,1.17631 7.85144,3.52607 2.37773,2.11793 3.57094,4.7081 3.57094,7.76193 l 0,135.456 c 0,3.29424 1.07447,5.99603 3.21472,8.1111 2.13735,2.11793 4.87131,3.1769 8.21056,3.1769 l 45.68662,0 c 3.09308,0 5.71409,1.17917 7.85144,3.52607 2.37773,2.11793 3.57094,4.7081 3.57094,7.76193 l 0,45.152 c 0,3.29424 -1.19321,5.99603 -3.57094,8.1111 -2.13735,2.11793 -4.75836,3.1769 -7.85144,3.1769 l -114.22091,0 c -3.33635,0 -6.07321,-1.05897 -8.21345,-3.1769 z" id="Imported-Layers" style="fill:#fff"/>
   <path d="m 0,227.812 c 0,-31.356 25.44,-56.8 56.796,-56.8 31.348,0 56.792,25.44 56.792,56.8 0,31.352 -25.444,56.792 -56.792,56.792 C 25.44,284.608 0,259.164 0,227.812 l 0,0 z" id="path3124-8" style="fill:#020051"/>
   <path d="m 24.112,251.236 c -0.684,0 -1.244,-0.22 -1.68,-0.66 -0.44,-0.436 -0.66,-0.996 -0.66,-1.68 l 0,-42.04 c 0,-0.684 0.22,-1.244 0.66,-1.68 0.436,-0.488 0.996,-0.732 1.68,-0.732 l 28.076,0 c 0.632,0 1.172,0.248 1.608,0.732 0.488,0.44 0.732,0.972 0.732,1.608 l 0,42.116 c 0,0.684 -0.244,1.244 -0.732,1.68 -0.436,0.436 -0.976,0.66 -1.608,0.66 l -9.356,0 c -0.684,0 -1.244,-0.22 -1.684,-0.66 -0.436,-0.436 -0.656,-0.996 -0.656,-1.68 l 0,-28.076 c 0,-0.628 -0.244,-1.172 -0.732,-1.608 -0.436,-0.488 -0.972,-0.732 -1.604,-0.732 -0.684,0 -1.244,0.248 -1.684,0.732 -0.44,0.436 -0.656,0.98 -0.656,1.608 l 0,28.076 c 0,0.684 -0.244,1.244 -0.732,1.68 -0.44,0.436 -0.972,0.66 -1.612,0.66 l -9.36,0 0,-0.004 z m 37.432,0 c -0.684,0 -1.244,-0.22 -1.68,-0.66 -0.44,-0.436 -0.66,-0.996 -0.66,-1.68 l 0,-42.116 c 0,-0.636 0.22,-1.172 0.66,-1.608 0.436,-0.488 0.996,-0.732 1.68,-0.732 l 9.356,0 c 0.636,0 1.172,0.248 1.608,0.732 0.488,0.44 0.736,0.972 0.736,1.608 l 0,28.076 c 0,0.684 0.216,1.244 0.656,1.68 0.44,0.444 1,0.656 1.68,0.656 0.632,0 1.172,-0.212 1.604,-0.656 0.488,-0.436 0.736,-0.996 0.736,-1.68 l 0,-28.076 c 0,-0.636 0.22,-1.172 0.656,-1.608 0.44,-0.488 1,-0.732 1.68,-0.732 l 9.356,0 c 0.632,0 1.172,0.248 1.612,0.732 0.488,0.44 0.732,0.972 0.732,1.608 l 0,42.116 c 0,0.684 -0.244,1.244 -0.732,1.68 -0.44,0.436 -0.98,0.66 -1.612,0.66 l -28.068,0 0,0 z" id="path3126-8" style="fill:#fff"/>
  </g>
  <g transform="matrix(2.1532078,0,0,2.1532078,1739.5078,203.5354)" id="g3365">
   <path id="path6" d="m 57.521,31.406505 c 5.763,1.59 10.06,2.34 10.06,2.34 -2.472,-2.473 -4.684,-5.016 -6.599,-7.421 3.345,-4.73 5.98,-8.004 5.98,-8.004 -3.548,0.786 -6.902,1.747 -9.906,2.734 -2.854,-4.099 -4.421,-6.984 -4.421,-6.984 -0.833,3.077 -1.235,6.158 -1.37,9.052 -4.768,1.847 -7.748,3.356 -7.748,3.356 2.578,1.162 5.255,2.176 7.847,3.049 0.42,5.565 1.545,9.428 1.545,9.428 1.446,-2.581 3.035,-5.148 4.612,-7.55" style="fill:#231f20"/>
   <path id="path8" d="m 83.827,29.946505 c -0.784,1.227 -1.983,2.102 -3.385,2.718 -0.192,-3.936 -0.794,-7.419 -0.794,-7.419 -1.197,3.234 -2.469,6.104 -3.695,8.581 -4.225,0.542 -8.372,-0.08 -8.372,-0.08 2.274,2.728 4.041,4.346 5.471,5.438 -2.139,3.606 -3.688,5.531 -3.688,5.531 2.99,-0.684 5.367,-1.82 7.258,-3.166 0.774,0.531 1.44,1.124 2.098,2.128 0,0 1.22,-1.73 1.638,-5.737 3.021,-3.951 3.469,-7.994 3.469,-7.994" style="fill:#231f20"/>
   <path id="path10" d="m 82.447,19.036505 c -1.347,-3.029 -3.287,-5.314 -5.403,-7.035 -1.804,-3.7900003 -3.881,-5.5400003 -3.881,-5.5400003 0.175,0.872 0.042,1.859 -0.282,2.878 -4.493,-2.227 -8.591,-2.537 -8.591,-2.537 2.61,1.711 4.927,3.8320003 6.917,6.0190003 -1.833,2.983 -4.244,5.5 -4.244,5.5 3.196,-0.72 5.768,-1.023 7.826,-1.078 3.158,4.349 4.859,8.002 4.859,8.002 0.061,-2.94 -0.233,-5.504 -0.724,-7.717 2.674,0.51 3.523,1.508 3.523,1.508" style="fill:#231f20"/>
   <path id="path12" d="m 64.29,6.8025047 c -2.18,-1.096 -4.266,-1.86 -6.206,-2.385 2.47,-2.089 4.767,-2.618 4.767,-2.618 -3.965,-0.157 -7.375,0.559 -10.229,1.657 -4.262,-0.34 -6.977,0.399 -6.977,0.399 0.638,0.481 1.177,1.341 1.728,2.369 -3.602,2.466 -5.431,5.0360003 -5.431,5.0360003 2.171,-1.078 4.475,-1.8950003 6.746,-2.5180003 0.248,0.455 0.508,0.909 0.793,1.3530003 1.504,2.342 3.155,3.976 3.155,3.976 0.59,-2.807 1.605,-4.9930003 2.772,-6.6890003 5.069,-0.705 8.882,-0.58 8.882,-0.58" style="fill:#231f20"/>
   <path id="path14" d="m 36.926,15.448505 c 1.358,-1.313 3.013,-2.728 5.016,-4.188 0,0 -1.848,0 -3.801,0.497 1.292,-3.1280003 2.725,-4.8620003 2.725,-4.8620003 0,0 -8.225,5.8500003 -9.787,16.3630003 0,0 0.691,-1.901 3.035,-4.768 0.93,2.084 2.001,3.396 2.001,3.396 0.014,-2.4 0.339,-4.557 0.811,-6.438" style="fill:#231f20"/>
   <path id="path16" d="m 43.518,26.479505 c -2.855,0.09 -5.094,0.34 -6.838,0.659 -0.49,-3.055 -0.565,-5.252 -0.565,-5.252 -1.41,2.152 -2.323,4.227 -2.888,6.159 -1.988,0.737 -2.49,1.45 -2.49,1.45 0.31,1.059 0.93,2.09 1.713,3.056 -0.245,4.577 1.236,7.601 1.236,7.601 0.333,-1.604 0.997,-3.166 1.831,-4.626 2.435,1.952 4.847,3.225 4.847,3.225 -1.136,-2.037 -1.973,-4.318 -2.587,-6.526 2.73,-3.427 5.741,-5.746 5.741,-5.746" style="fill:#231f20"/>
   <path id="path18" d="m 57.642,49.859505 c 0,0 -2.395,-0.956 -5.824,-2.888 0.122,-2.061 0.44,-4.685 1.092,-8.015 0,0 -2.725,2.697 -6.254,4.787 -2.048,-1.415 -4.201,-3.077 -6.292,-4.992 0,0 1.018,3.145 2.979,6.608 -1.861,0.696 -3.779,1.019 -5.533,0.59 0,0 2.072,2.587 8.463,3.685 1.772,2.103 3.931,3.84 6.451,4.444 0,0 -0.759,-0.833 -0.928,-3.959 1.743,0.024 3.684,-0.053 5.846,-0.26" style="fill:#231f20"/>
   <path id="path20" d="m 69.227,49.595505 c 0.549,-2.529 0.137,-4.88 0.137,-4.88 -1.617,2.325 -3.206,4.095 -4.677,5.443 -3.957,0.205 -7.045,-0.299 -7.045,-0.299 0,0 1.766,1.764 3.803,2.782 -2.689,1.663 -4.491,1.811 -4.491,1.811 11.771,0.249 18.835,-7.436 18.835,-7.436 -1.984,1.309 -4.281,2.109 -6.562,2.579" style="fill:#231f20"/>
  </g>
 </g>
</svg>
